<mxfile host="app.diagrams.net" modified="2024-07-09T14:43:14.316Z" agent="Mozilla/5.0 (Windows NT 10.0; Win64; x64) AppleWebKit/537.36 (KHTML, like Gecko) Chrome/124.0.0.0 YaBrowser/24.6.0.0 Safari/537.36" etag="lLvKQ3HOJukqfWl7zyVi" version="24.6.4" type="device">
  <diagram id="C5RBs43oDa-KdzZeNtuy" name="Page-1">
    <mxGraphModel dx="1191" dy="762" grid="1" gridSize="10" guides="1" tooltips="1" connect="1" arrows="1" fold="1" page="1" pageScale="1" pageWidth="1169" pageHeight="827" math="0" shadow="0">
      <root>
        <mxCell id="WIyWlLk6GJQsqaUBKTNV-0" />
        <mxCell id="WIyWlLk6GJQsqaUBKTNV-1" parent="WIyWlLk6GJQsqaUBKTNV-0" />
        <mxCell id="PZBASMzx2I_26drX7nRm-27" style="edgeStyle=none;curved=1;rounded=0;orthogonalLoop=1;jettySize=auto;html=1;exitX=0.5;exitY=1;exitDx=0;exitDy=0;fontSize=12;startSize=8;endSize=8;" edge="1" parent="WIyWlLk6GJQsqaUBKTNV-1" source="WIyWlLk6GJQsqaUBKTNV-6">
          <mxGeometry relative="1" as="geometry">
            <mxPoint x="243" y="660" as="targetPoint" />
          </mxGeometry>
        </mxCell>
        <mxCell id="WIyWlLk6GJQsqaUBKTNV-6" value="&lt;font style=&quot;font-size: 14px;&quot;&gt;arr[i] &amp;gt; arr[i + 1]&lt;/font&gt;" style="rhombus;whiteSpace=wrap;html=1;shadow=0;fontFamily=Helvetica;fontSize=12;align=center;strokeWidth=1;spacing=6;spacingTop=-4;" parent="WIyWlLk6GJQsqaUBKTNV-1" vertex="1">
          <mxGeometry x="170" y="520" width="145" height="90" as="geometry" />
        </mxCell>
        <mxCell id="PZBASMzx2I_26drX7nRm-0" value="" style="ellipse;whiteSpace=wrap;html=1;" vertex="1" parent="WIyWlLk6GJQsqaUBKTNV-1">
          <mxGeometry x="360" y="50" width="120" height="50" as="geometry" />
        </mxCell>
        <mxCell id="PZBASMzx2I_26drX7nRm-108" style="edgeStyle=none;curved=1;rounded=0;orthogonalLoop=1;jettySize=auto;html=1;fontSize=12;startSize=8;endSize=8;entryX=0.471;entryY=0.015;entryDx=0;entryDy=0;entryPerimeter=0;" edge="1" parent="WIyWlLk6GJQsqaUBKTNV-1" target="PZBASMzx2I_26drX7nRm-5">
          <mxGeometry relative="1" as="geometry">
            <mxPoint x="420" y="100" as="sourcePoint" />
          </mxGeometry>
        </mxCell>
        <mxCell id="PZBASMzx2I_26drX7nRm-3" value="Start" style="text;html=1;align=center;verticalAlign=middle;whiteSpace=wrap;rounded=0;fontSize=16;" vertex="1" parent="WIyWlLk6GJQsqaUBKTNV-1">
          <mxGeometry x="390" y="60" width="60" height="30" as="geometry" />
        </mxCell>
        <mxCell id="PZBASMzx2I_26drX7nRm-109" style="edgeStyle=none;curved=1;rounded=0;orthogonalLoop=1;jettySize=auto;html=1;entryX=0.474;entryY=0;entryDx=0;entryDy=0;fontSize=12;startSize=8;endSize=8;exitX=0.478;exitY=0.987;exitDx=0;exitDy=0;exitPerimeter=0;entryPerimeter=0;" edge="1" parent="WIyWlLk6GJQsqaUBKTNV-1" source="PZBASMzx2I_26drX7nRm-4" target="PZBASMzx2I_26drX7nRm-7">
          <mxGeometry relative="1" as="geometry" />
        </mxCell>
        <mxCell id="PZBASMzx2I_26drX7nRm-4" value="" style="shape=parallelogram;perimeter=parallelogramPerimeter;whiteSpace=wrap;html=1;fixedSize=1;" vertex="1" parent="WIyWlLk6GJQsqaUBKTNV-1">
          <mxGeometry x="320" y="130" width="210" height="40" as="geometry" />
        </mxCell>
        <mxCell id="PZBASMzx2I_26drX7nRm-5" value="&lt;font style=&quot;font-size: 14px;&quot;&gt;int[] array = new int [size]&lt;/font&gt;" style="text;html=1;align=center;verticalAlign=middle;whiteSpace=wrap;rounded=0;fontSize=16;" vertex="1" parent="WIyWlLk6GJQsqaUBKTNV-1">
          <mxGeometry x="340" y="130" width="170" height="30" as="geometry" />
        </mxCell>
        <mxCell id="PZBASMzx2I_26drX7nRm-7" value="" style="rounded=0;whiteSpace=wrap;html=1;" vertex="1" parent="WIyWlLk6GJQsqaUBKTNV-1">
          <mxGeometry x="330" y="190" width="190" height="70" as="geometry" />
        </mxCell>
        <mxCell id="PZBASMzx2I_26drX7nRm-8" value="&lt;font style=&quot;font-size: 14px;&quot;&gt;int left = 0;&lt;/font&gt;&lt;div style=&quot;font-size: 14px;&quot;&gt;&lt;font style=&quot;font-size: 14px;&quot;&gt;int right = arr.length - 1;&lt;/font&gt;&lt;/div&gt;&lt;div style=&quot;font-size: 14px;&quot;&gt;&lt;font style=&quot;font-size: 14px;&quot;&gt;int flag = 1;&amp;nbsp;&lt;br&gt;&lt;/font&gt;&lt;div&gt;&lt;br&gt;&lt;/div&gt;&lt;/div&gt;" style="text;html=1;align=center;verticalAlign=middle;whiteSpace=wrap;rounded=0;fontSize=16;" vertex="1" parent="WIyWlLk6GJQsqaUBKTNV-1">
          <mxGeometry x="340" y="210" width="170" height="50" as="geometry" />
        </mxCell>
        <mxCell id="PZBASMzx2I_26drX7nRm-9" value="" style="rounded=0;whiteSpace=wrap;html=1;" vertex="1" parent="WIyWlLk6GJQsqaUBKTNV-1">
          <mxGeometry x="135" y="430" width="210" height="60" as="geometry" />
        </mxCell>
        <mxCell id="PZBASMzx2I_26drX7nRm-10" value="&lt;div style=&quot;font-size: 14px;&quot;&gt;&lt;font style=&quot;font-size: 14px;&quot;&gt;flag = 0;&lt;/font&gt;&lt;/div&gt;&lt;div style=&quot;font-size: 14px;&quot;&gt;&lt;span style=&quot;background-color: initial;&quot;&gt;&lt;font style=&quot;font-size: 14px;&quot;&gt;for (int i = left; i &amp;lt; right; i++)&amp;nbsp;&lt;/font&gt;&lt;/span&gt;&lt;/div&gt;" style="text;html=1;align=center;verticalAlign=middle;whiteSpace=wrap;rounded=0;fontSize=16;" vertex="1" parent="WIyWlLk6GJQsqaUBKTNV-1">
          <mxGeometry x="145" y="440" width="200" height="30" as="geometry" />
        </mxCell>
        <mxCell id="PZBASMzx2I_26drX7nRm-17" value="" style="endArrow=classic;html=1;rounded=0;fontSize=12;startSize=8;endSize=8;curved=1;entryX=0.5;entryY=0;entryDx=0;entryDy=0;" edge="1" parent="WIyWlLk6GJQsqaUBKTNV-1" target="PZBASMzx2I_26drX7nRm-9">
          <mxGeometry width="50" height="50" relative="1" as="geometry">
            <mxPoint x="240" y="330" as="sourcePoint" />
            <mxPoint x="380" y="450" as="targetPoint" />
          </mxGeometry>
        </mxCell>
        <mxCell id="PZBASMzx2I_26drX7nRm-20" value="" style="endArrow=none;html=1;rounded=0;fontSize=12;startSize=8;endSize=8;curved=1;exitX=0;exitY=0.5;exitDx=0;exitDy=0;" edge="1" parent="WIyWlLk6GJQsqaUBKTNV-1" source="PZBASMzx2I_26drX7nRm-21">
          <mxGeometry width="50" height="50" relative="1" as="geometry">
            <mxPoint x="350" y="390" as="sourcePoint" />
            <mxPoint x="240" y="335" as="targetPoint" />
          </mxGeometry>
        </mxCell>
        <mxCell id="PZBASMzx2I_26drX7nRm-21" value="&lt;font style=&quot;font-size: 14px;&quot;&gt;(left &amp;lt; right) &amp;amp;&amp;amp; (flag &amp;gt; 0)&lt;/font&gt;" style="rhombus;whiteSpace=wrap;html=1;shadow=0;fontFamily=Helvetica;fontSize=12;align=center;strokeWidth=1;spacing=6;spacingTop=-4;" vertex="1" parent="WIyWlLk6GJQsqaUBKTNV-1">
          <mxGeometry x="320" y="290" width="200" height="90" as="geometry" />
        </mxCell>
        <mxCell id="PZBASMzx2I_26drX7nRm-22" value="" style="endArrow=classic;html=1;rounded=0;fontSize=12;curved=1;exitX=1;exitY=0.5;exitDx=0;exitDy=0;entryX=0;entryY=0.5;entryDx=0;entryDy=0;" edge="1" parent="WIyWlLk6GJQsqaUBKTNV-1" source="PZBASMzx2I_26drX7nRm-21" target="PZBASMzx2I_26drX7nRm-95">
          <mxGeometry width="50" height="50" relative="1" as="geometry">
            <mxPoint x="400" y="470" as="sourcePoint" />
            <mxPoint x="770" y="335" as="targetPoint" />
          </mxGeometry>
        </mxCell>
        <mxCell id="PZBASMzx2I_26drX7nRm-23" value="" style="endArrow=classic;html=1;rounded=0;fontSize=12;startSize=8;endSize=8;curved=1;exitX=0.51;exitY=0.988;exitDx=0;exitDy=0;entryX=0.5;entryY=0;entryDx=0;entryDy=0;exitPerimeter=0;" edge="1" parent="WIyWlLk6GJQsqaUBKTNV-1" source="PZBASMzx2I_26drX7nRm-9" target="WIyWlLk6GJQsqaUBKTNV-6">
          <mxGeometry relative="1" as="geometry">
            <mxPoint x="340" y="450" as="sourcePoint" />
            <mxPoint x="500" y="450" as="targetPoint" />
          </mxGeometry>
        </mxCell>
        <mxCell id="PZBASMzx2I_26drX7nRm-31" value="&lt;font style=&quot;font-size: 14px;&quot;&gt;Yes&lt;/font&gt;" style="text;html=1;align=center;verticalAlign=middle;whiteSpace=wrap;rounded=0;fontSize=16;" vertex="1" parent="WIyWlLk6GJQsqaUBKTNV-1">
          <mxGeometry x="250" y="300" width="60" height="30" as="geometry" />
        </mxCell>
        <mxCell id="PZBASMzx2I_26drX7nRm-32" style="edgeStyle=none;curved=1;rounded=0;orthogonalLoop=1;jettySize=auto;html=1;exitX=0.75;exitY=0;exitDx=0;exitDy=0;fontSize=12;startSize=8;endSize=8;" edge="1" parent="WIyWlLk6GJQsqaUBKTNV-1" source="PZBASMzx2I_26drX7nRm-31" target="PZBASMzx2I_26drX7nRm-31">
          <mxGeometry relative="1" as="geometry" />
        </mxCell>
        <mxCell id="PZBASMzx2I_26drX7nRm-33" value="&lt;font style=&quot;font-size: 14px;&quot;&gt;Yes&lt;/font&gt;" style="text;html=1;align=center;verticalAlign=middle;whiteSpace=wrap;rounded=0;fontSize=16;" vertex="1" parent="WIyWlLk6GJQsqaUBKTNV-1">
          <mxGeometry x="230" y="610" width="60" height="30" as="geometry" />
        </mxCell>
        <mxCell id="PZBASMzx2I_26drX7nRm-34" value="" style="rounded=0;whiteSpace=wrap;html=1;" vertex="1" parent="WIyWlLk6GJQsqaUBKTNV-1">
          <mxGeometry x="170" y="660" width="150" height="100" as="geometry" />
        </mxCell>
        <mxCell id="PZBASMzx2I_26drX7nRm-35" value="&lt;div style=&quot;font-size: 14px;&quot;&gt;&lt;font style=&quot;font-size: 14px;&quot;&gt;int t = arr[i];&lt;/font&gt;&lt;/div&gt;&lt;div style=&quot;font-size: 14px;&quot;&gt;&lt;font style=&quot;font-size: 14px;&quot;&gt;&amp;nbsp; arr[i] = arr[i + 1];&lt;/font&gt;&lt;/div&gt;&lt;div style=&quot;font-size: 14px;&quot;&gt;&lt;span style=&quot;background-color: initial;&quot;&gt;&lt;font style=&quot;font-size: 14px;&quot;&gt;arr [i + 1] = t;&lt;/font&gt;&lt;/span&gt;&lt;/div&gt;&lt;div style=&quot;font-size: 14px;&quot;&gt;&lt;font style=&quot;font-size: 14px;&quot;&gt;&amp;nbsp;flag = 1;&lt;/font&gt;&lt;/div&gt;" style="text;html=1;align=center;verticalAlign=middle;whiteSpace=wrap;rounded=0;fontSize=16;" vertex="1" parent="WIyWlLk6GJQsqaUBKTNV-1">
          <mxGeometry x="135" y="695" width="210" height="30" as="geometry" />
        </mxCell>
        <mxCell id="PZBASMzx2I_26drX7nRm-40" value="" style="endArrow=classic;html=1;rounded=0;fontSize=12;startSize=8;endSize=8;curved=1;exitX=0.5;exitY=0;exitDx=0;exitDy=0;" edge="1" parent="WIyWlLk6GJQsqaUBKTNV-1">
          <mxGeometry width="50" height="50" relative="1" as="geometry">
            <mxPoint x="90" y="535" as="sourcePoint" />
            <mxPoint x="90" y="450" as="targetPoint" />
          </mxGeometry>
        </mxCell>
        <mxCell id="PZBASMzx2I_26drX7nRm-41" value="" style="endArrow=classic;html=1;rounded=0;fontSize=12;startSize=8;endSize=8;curved=1;exitX=0;exitY=0.5;exitDx=0;exitDy=0;" edge="1" parent="WIyWlLk6GJQsqaUBKTNV-1" source="WIyWlLk6GJQsqaUBKTNV-6">
          <mxGeometry width="50" height="50" relative="1" as="geometry">
            <mxPoint x="140" y="570" as="sourcePoint" />
            <mxPoint x="130" y="565" as="targetPoint" />
          </mxGeometry>
        </mxCell>
        <mxCell id="PZBASMzx2I_26drX7nRm-42" value="" style="endArrow=classic;html=1;rounded=0;fontSize=12;startSize=8;endSize=8;curved=1;entryX=0.004;entryY=0.33;entryDx=0;entryDy=0;entryPerimeter=0;" edge="1" parent="WIyWlLk6GJQsqaUBKTNV-1" target="PZBASMzx2I_26drX7nRm-9">
          <mxGeometry width="50" height="50" relative="1" as="geometry">
            <mxPoint x="90" y="450" as="sourcePoint" />
            <mxPoint x="220" y="540" as="targetPoint" />
          </mxGeometry>
        </mxCell>
        <mxCell id="PZBASMzx2I_26drX7nRm-43" value="&lt;font style=&quot;font-size: 14px;&quot;&gt;No&lt;/font&gt;" style="text;html=1;align=center;verticalAlign=middle;whiteSpace=wrap;rounded=0;fontSize=16;" vertex="1" parent="WIyWlLk6GJQsqaUBKTNV-1">
          <mxGeometry x="130" y="535" width="60" height="30" as="geometry" />
        </mxCell>
        <mxCell id="PZBASMzx2I_26drX7nRm-44" value="" style="rounded=0;whiteSpace=wrap;html=1;" vertex="1" parent="WIyWlLk6GJQsqaUBKTNV-1">
          <mxGeometry x="70" y="535" width="80" height="60" as="geometry" />
        </mxCell>
        <mxCell id="PZBASMzx2I_26drX7nRm-46" value="&lt;font style=&quot;font-size: 14px;&quot;&gt;right--&lt;/font&gt;" style="text;html=1;align=center;verticalAlign=middle;whiteSpace=wrap;rounded=0;fontSize=16;" vertex="1" parent="WIyWlLk6GJQsqaUBKTNV-1">
          <mxGeometry x="80" y="550" width="60" height="30" as="geometry" />
        </mxCell>
        <mxCell id="PZBASMzx2I_26drX7nRm-47" value="&lt;font style=&quot;font-size: 14px;&quot;&gt;No&lt;/font&gt;" style="text;html=1;align=center;verticalAlign=middle;whiteSpace=wrap;rounded=0;fontSize=16;" vertex="1" parent="WIyWlLk6GJQsqaUBKTNV-1">
          <mxGeometry x="582.5" y="300" width="40" height="30" as="geometry" />
        </mxCell>
        <mxCell id="PZBASMzx2I_26drX7nRm-49" value="" style="rounded=0;whiteSpace=wrap;html=1;" vertex="1" parent="WIyWlLk6GJQsqaUBKTNV-1">
          <mxGeometry x="400" y="430" width="190" height="60" as="geometry" />
        </mxCell>
        <mxCell id="PZBASMzx2I_26drX7nRm-50" value="&lt;div style=&quot;font-size: 14px;&quot;&gt;&lt;font style=&quot;font-size: 14px;&quot;&gt;flag = 0;&lt;/font&gt;&lt;/div&gt;&lt;div style=&quot;&quot;&gt;&lt;span style=&quot;background-color: initial;&quot;&gt;&lt;font style=&quot;&quot;&gt;&lt;span style=&quot;font-size: 14px;&quot;&gt;for (int i = right; i &amp;gt; left; i--)&amp;nbsp;&lt;/span&gt;&lt;/font&gt;&lt;/span&gt;&lt;/div&gt;" style="text;html=1;align=center;verticalAlign=middle;whiteSpace=wrap;rounded=0;fontSize=16;" vertex="1" parent="WIyWlLk6GJQsqaUBKTNV-1">
          <mxGeometry x="395" y="440" width="200" height="30" as="geometry" />
        </mxCell>
        <mxCell id="PZBASMzx2I_26drX7nRm-51" value="" style="endArrow=classic;html=1;rounded=0;fontSize=12;startSize=8;endSize=8;curved=1;entryX=0;entryY=0.5;entryDx=0;entryDy=0;exitX=1.001;exitY=0.644;exitDx=0;exitDy=0;exitPerimeter=0;" edge="1" parent="WIyWlLk6GJQsqaUBKTNV-1" source="PZBASMzx2I_26drX7nRm-10" target="PZBASMzx2I_26drX7nRm-49">
          <mxGeometry width="50" height="50" relative="1" as="geometry">
            <mxPoint x="590" y="340" as="sourcePoint" />
            <mxPoint x="440" y="390" as="targetPoint" />
          </mxGeometry>
        </mxCell>
        <mxCell id="PZBASMzx2I_26drX7nRm-55" value="" style="endArrow=classic;html=1;rounded=0;fontSize=12;startSize=8;endSize=8;curved=1;entryX=0.5;entryY=1;entryDx=0;entryDy=0;" edge="1" parent="WIyWlLk6GJQsqaUBKTNV-1">
          <mxGeometry width="50" height="50" relative="1" as="geometry">
            <mxPoint x="90" y="710" as="sourcePoint" />
            <mxPoint x="90" y="595" as="targetPoint" />
          </mxGeometry>
        </mxCell>
        <mxCell id="PZBASMzx2I_26drX7nRm-56" value="" style="endArrow=classic;html=1;rounded=0;fontSize=12;startSize=8;endSize=8;curved=1;exitX=0;exitY=0.5;exitDx=0;exitDy=0;" edge="1" parent="WIyWlLk6GJQsqaUBKTNV-1" source="PZBASMzx2I_26drX7nRm-34">
          <mxGeometry width="50" height="50" relative="1" as="geometry">
            <mxPoint x="380" y="560" as="sourcePoint" />
            <mxPoint x="90" y="710" as="targetPoint" />
          </mxGeometry>
        </mxCell>
        <mxCell id="PZBASMzx2I_26drX7nRm-65" style="edgeStyle=none;curved=1;rounded=0;orthogonalLoop=1;jettySize=auto;html=1;entryX=0.5;entryY=0;entryDx=0;entryDy=0;fontSize=12;startSize=8;endSize=8;" edge="1" parent="WIyWlLk6GJQsqaUBKTNV-1" source="PZBASMzx2I_26drX7nRm-57" target="PZBASMzx2I_26drX7nRm-63">
          <mxGeometry relative="1" as="geometry" />
        </mxCell>
        <mxCell id="PZBASMzx2I_26drX7nRm-70" style="edgeStyle=none;curved=1;rounded=0;orthogonalLoop=1;jettySize=auto;html=1;entryX=0;entryY=0.5;entryDx=0;entryDy=0;fontSize=12;startSize=8;endSize=8;exitX=1;exitY=0.5;exitDx=0;exitDy=0;" edge="1" parent="WIyWlLk6GJQsqaUBKTNV-1" source="PZBASMzx2I_26drX7nRm-57" target="PZBASMzx2I_26drX7nRm-78">
          <mxGeometry relative="1" as="geometry">
            <mxPoint x="629.8399999999999" y="564.26" as="targetPoint" />
          </mxGeometry>
        </mxCell>
        <mxCell id="PZBASMzx2I_26drX7nRm-57" value="&lt;font style=&quot;font-size: 14px;&quot;&gt;arr[i - 1] &amp;gt; arr[i]&lt;/font&gt;" style="rhombus;whiteSpace=wrap;html=1;shadow=0;fontFamily=Helvetica;fontSize=12;align=center;strokeWidth=1;spacing=6;spacingTop=-4;" vertex="1" parent="WIyWlLk6GJQsqaUBKTNV-1">
          <mxGeometry x="437.5" y="520" width="145" height="90" as="geometry" />
        </mxCell>
        <mxCell id="PZBASMzx2I_26drX7nRm-59" value="" style="endArrow=classic;html=1;rounded=0;fontSize=12;startSize=8;endSize=8;curved=1;entryX=0.5;entryY=0;entryDx=0;entryDy=0;" edge="1" parent="WIyWlLk6GJQsqaUBKTNV-1" target="PZBASMzx2I_26drX7nRm-57">
          <mxGeometry width="50" height="50" relative="1" as="geometry">
            <mxPoint x="510" y="490" as="sourcePoint" />
            <mxPoint x="330" y="470" as="targetPoint" />
          </mxGeometry>
        </mxCell>
        <mxCell id="PZBASMzx2I_26drX7nRm-63" value="" style="rounded=0;whiteSpace=wrap;html=1;" vertex="1" parent="WIyWlLk6GJQsqaUBKTNV-1">
          <mxGeometry x="435" y="660" width="145" height="100" as="geometry" />
        </mxCell>
        <mxCell id="PZBASMzx2I_26drX7nRm-64" value="&lt;div style=&quot;font-size: 14px;&quot;&gt;&lt;div&gt;&amp;nbsp;int t = arr[i];&lt;/div&gt;&lt;div&gt;&amp;nbsp;arr[i] = arr[i - 1];&lt;/div&gt;&lt;div&gt;&amp;nbsp; &amp;nbsp; arr[i - 1] = t;&lt;/div&gt;&lt;div&gt;&amp;nbsp; &amp;nbsp; flag = 1;&lt;/div&gt;&lt;/div&gt;" style="text;html=1;align=center;verticalAlign=middle;whiteSpace=wrap;rounded=0;fontSize=16;" vertex="1" parent="WIyWlLk6GJQsqaUBKTNV-1">
          <mxGeometry x="400" y="695" width="210" height="30" as="geometry" />
        </mxCell>
        <mxCell id="PZBASMzx2I_26drX7nRm-66" value="&lt;font style=&quot;font-size: 14px;&quot;&gt;Yes&lt;/font&gt;" style="text;html=1;align=center;verticalAlign=middle;whiteSpace=wrap;rounded=0;fontSize=16;" vertex="1" parent="WIyWlLk6GJQsqaUBKTNV-1">
          <mxGeometry x="510" y="610" width="60" height="30" as="geometry" />
        </mxCell>
        <mxCell id="PZBASMzx2I_26drX7nRm-76" style="edgeStyle=none;curved=1;rounded=0;orthogonalLoop=1;jettySize=auto;html=1;exitX=1;exitY=0.5;exitDx=0;exitDy=0;fontSize=12;startSize=8;endSize=8;" edge="1" parent="WIyWlLk6GJQsqaUBKTNV-1">
          <mxGeometry relative="1" as="geometry">
            <mxPoint x="592.5" y="710" as="sourcePoint" />
            <mxPoint x="592.5" y="710" as="targetPoint" />
          </mxGeometry>
        </mxCell>
        <mxCell id="PZBASMzx2I_26drX7nRm-77" value="" style="endArrow=classic;html=1;rounded=0;fontSize=12;startSize=8;endSize=8;curved=1;exitX=0.857;exitY=0.5;exitDx=0;exitDy=0;exitPerimeter=0;" edge="1" parent="WIyWlLk6GJQsqaUBKTNV-1" source="PZBASMzx2I_26drX7nRm-64">
          <mxGeometry width="50" height="50" relative="1" as="geometry">
            <mxPoint x="560" y="730" as="sourcePoint" />
            <mxPoint x="700" y="710" as="targetPoint" />
          </mxGeometry>
        </mxCell>
        <mxCell id="PZBASMzx2I_26drX7nRm-78" value="" style="rounded=0;whiteSpace=wrap;html=1;" vertex="1" parent="WIyWlLk6GJQsqaUBKTNV-1">
          <mxGeometry x="655" y="535" width="80" height="60" as="geometry" />
        </mxCell>
        <mxCell id="PZBASMzx2I_26drX7nRm-79" value="&lt;font style=&quot;font-size: 14px;&quot;&gt;left++&lt;/font&gt;" style="text;html=1;align=center;verticalAlign=middle;whiteSpace=wrap;rounded=0;fontSize=16;" vertex="1" parent="WIyWlLk6GJQsqaUBKTNV-1">
          <mxGeometry x="665" y="550" width="60" height="30" as="geometry" />
        </mxCell>
        <mxCell id="PZBASMzx2I_26drX7nRm-80" value="" style="endArrow=classic;html=1;rounded=0;fontSize=12;startSize=8;endSize=8;curved=1;entryX=0.5;entryY=1;entryDx=0;entryDy=0;" edge="1" parent="WIyWlLk6GJQsqaUBKTNV-1" target="PZBASMzx2I_26drX7nRm-78">
          <mxGeometry width="50" height="50" relative="1" as="geometry">
            <mxPoint x="695" y="710" as="sourcePoint" />
            <mxPoint x="435" y="580" as="targetPoint" />
          </mxGeometry>
        </mxCell>
        <mxCell id="PZBASMzx2I_26drX7nRm-82" value="&lt;font style=&quot;font-size: 14px;&quot;&gt;No&lt;/font&gt;" style="text;html=1;align=center;verticalAlign=middle;whiteSpace=wrap;rounded=0;fontSize=16;" vertex="1" parent="WIyWlLk6GJQsqaUBKTNV-1">
          <mxGeometry x="582.5" y="530" width="60" height="30" as="geometry" />
        </mxCell>
        <mxCell id="PZBASMzx2I_26drX7nRm-83" value="" style="endArrow=classic;html=1;rounded=0;fontSize=12;startSize=8;endSize=8;curved=1;exitX=0.5;exitY=0;exitDx=0;exitDy=0;entryX=0.5;entryY=1;entryDx=0;entryDy=0;" edge="1" parent="WIyWlLk6GJQsqaUBKTNV-1" source="PZBASMzx2I_26drX7nRm-78" target="PZBASMzx2I_26drX7nRm-85">
          <mxGeometry width="50" height="50" relative="1" as="geometry">
            <mxPoint x="402.5" y="430" as="sourcePoint" />
            <mxPoint x="712.5" y="490" as="targetPoint" />
          </mxGeometry>
        </mxCell>
        <mxCell id="PZBASMzx2I_26drX7nRm-90" style="edgeStyle=none;curved=1;rounded=0;orthogonalLoop=1;jettySize=auto;html=1;fontSize=12;startSize=8;endSize=8;" edge="1" parent="WIyWlLk6GJQsqaUBKTNV-1" source="PZBASMzx2I_26drX7nRm-85">
          <mxGeometry relative="1" as="geometry">
            <mxPoint x="695" y="330" as="targetPoint" />
          </mxGeometry>
        </mxCell>
        <mxCell id="PZBASMzx2I_26drX7nRm-85" value="&lt;font style=&quot;font-size: 14px;&quot;&gt;(flag == 0)&lt;/font&gt;" style="rhombus;whiteSpace=wrap;html=1;shadow=0;fontFamily=Helvetica;fontSize=12;align=center;strokeWidth=1;spacing=6;spacingTop=-4;" vertex="1" parent="WIyWlLk6GJQsqaUBKTNV-1">
          <mxGeometry x="630" y="430" width="130" height="60" as="geometry" />
        </mxCell>
        <mxCell id="PZBASMzx2I_26drX7nRm-86" value="" style="endArrow=classic;html=1;rounded=0;fontSize=12;startSize=8;endSize=8;curved=1;exitX=0;exitY=0.5;exitDx=0;exitDy=0;" edge="1" parent="WIyWlLk6GJQsqaUBKTNV-1">
          <mxGeometry width="50" height="50" relative="1" as="geometry">
            <mxPoint x="631.25" y="460" as="sourcePoint" />
            <mxPoint x="591.5" y="460" as="targetPoint" />
          </mxGeometry>
        </mxCell>
        <mxCell id="PZBASMzx2I_26drX7nRm-87" value="&lt;font style=&quot;font-size: 14px;&quot;&gt;No&lt;/font&gt;" style="text;html=1;align=center;verticalAlign=middle;whiteSpace=wrap;rounded=0;fontSize=16;" vertex="1" parent="WIyWlLk6GJQsqaUBKTNV-1">
          <mxGeometry x="592.5" y="420" width="60" height="30" as="geometry" />
        </mxCell>
        <mxCell id="PZBASMzx2I_26drX7nRm-88" value="&lt;font style=&quot;font-size: 14px;&quot;&gt;Yes&lt;/font&gt;" style="text;html=1;align=center;verticalAlign=middle;whiteSpace=wrap;rounded=0;fontSize=16;" vertex="1" parent="WIyWlLk6GJQsqaUBKTNV-1">
          <mxGeometry x="642.5" y="365" width="60" height="30" as="geometry" />
        </mxCell>
        <mxCell id="PZBASMzx2I_26drX7nRm-95" value="" style="rounded=0;whiteSpace=wrap;html=1;" vertex="1" parent="WIyWlLk6GJQsqaUBKTNV-1">
          <mxGeometry x="760" y="305" width="170" height="60" as="geometry" />
        </mxCell>
        <mxCell id="PZBASMzx2I_26drX7nRm-106" value="" style="edgeStyle=none;curved=1;rounded=0;orthogonalLoop=1;jettySize=auto;html=1;fontSize=12;startSize=8;endSize=8;exitX=1;exitY=0.5;exitDx=0;exitDy=0;" edge="1" parent="WIyWlLk6GJQsqaUBKTNV-1" source="PZBASMzx2I_26drX7nRm-95">
          <mxGeometry relative="1" as="geometry">
            <mxPoint x="970" y="335" as="targetPoint" />
          </mxGeometry>
        </mxCell>
        <mxCell id="PZBASMzx2I_26drX7nRm-97" value="&lt;font style=&quot;font-size: 13px;&quot;&gt;System.out.print&lt;/font&gt;&lt;div style=&quot;font-size: 13px;&quot;&gt;&lt;font style=&quot;font-size: 13px;&quot;&gt;(Arrays.toString(array))&lt;/font&gt;&lt;/div&gt;" style="text;html=1;align=center;verticalAlign=middle;whiteSpace=wrap;rounded=0;fontSize=16;" vertex="1" parent="WIyWlLk6GJQsqaUBKTNV-1">
          <mxGeometry x="815" y="320" width="60" height="30" as="geometry" />
        </mxCell>
        <mxCell id="PZBASMzx2I_26drX7nRm-102" value="" style="ellipse;whiteSpace=wrap;html=1;" vertex="1" parent="WIyWlLk6GJQsqaUBKTNV-1">
          <mxGeometry x="970" y="310" width="120" height="50" as="geometry" />
        </mxCell>
        <mxCell id="PZBASMzx2I_26drX7nRm-103" value="End" style="text;html=1;align=center;verticalAlign=middle;whiteSpace=wrap;rounded=0;fontSize=16;" vertex="1" parent="WIyWlLk6GJQsqaUBKTNV-1">
          <mxGeometry x="1000" y="320" width="60" height="30" as="geometry" />
        </mxCell>
        <mxCell id="PZBASMzx2I_26drX7nRm-107" style="edgeStyle=none;curved=1;rounded=0;orthogonalLoop=1;jettySize=auto;html=1;exitX=0.5;exitY=0;exitDx=0;exitDy=0;fontSize=12;startSize=8;endSize=8;" edge="1" parent="WIyWlLk6GJQsqaUBKTNV-1" source="PZBASMzx2I_26drX7nRm-47" target="PZBASMzx2I_26drX7nRm-47">
          <mxGeometry relative="1" as="geometry" />
        </mxCell>
        <mxCell id="PZBASMzx2I_26drX7nRm-110" value="" style="endArrow=classic;html=1;rounded=0;fontSize=12;startSize=8;endSize=8;curved=1;entryX=0.5;entryY=0;entryDx=0;entryDy=0;" edge="1" parent="WIyWlLk6GJQsqaUBKTNV-1" target="PZBASMzx2I_26drX7nRm-21">
          <mxGeometry width="50" height="50" relative="1" as="geometry">
            <mxPoint x="420" y="259" as="sourcePoint" />
            <mxPoint x="630" y="140" as="targetPoint" />
          </mxGeometry>
        </mxCell>
      </root>
    </mxGraphModel>
  </diagram>
</mxfile>
